<svg width="34" height="34" viewBox="0 0 34 34" fill="none" xmlns="http://www.w3.org/2000/svg">
<path d="M27.9286 7.28564H33.2836L26.7143 0.716421V6.07137C26.7143 6.39341 26.8422 6.70227 27.0699 6.92999C27.2977 7.15771 27.6065 7.28564 27.9286 7.28564Z" fill="#90B845"/>
<path d="M27.9286 9.71419C26.9624 9.71419 26.0359 9.33039 25.3527 8.64723C24.6695 7.96407 24.2857 7.0375 24.2857 6.07137V0H10.9286C9.96243 0 9.03585 0.383796 8.35268 1.06696C7.66951 1.75012 7.28571 2.67668 7.28571 3.64282V7.28564C9.1503 7.29004 10.9742 7.83096 12.5397 8.84382C14.1052 9.85667 15.3461 11.2987 16.1143 12.9976C16.8825 14.6966 17.1455 16.5808 16.8719 18.4252C16.5984 20.2695 15.7997 21.9962 14.5714 23.3991V32.7854C14.573 33.2001 14.4989 33.6115 14.3529 33.9997H30.3571C31.3233 33.9997 32.2499 33.6159 32.933 32.9327C33.6162 32.2495 34 31.323 34 30.3568V9.71419H27.9286ZM15.7857 8.49992C15.7857 8.17787 15.9136 7.86902 16.1414 7.64129C16.3691 7.41357 16.678 7.28564 17 7.28564H20.6429C20.9649 7.28564 21.2738 7.41357 21.5015 7.64129C21.7292 7.86902 21.8571 8.17787 21.8571 8.49992C21.8571 8.82196 21.7292 9.13082 21.5015 9.35854C21.2738 9.58626 20.9649 9.71419 20.6429 9.71419H17C16.678 9.71419 16.3691 9.58626 16.1414 9.35854C15.9136 9.13082 15.7857 8.82196 15.7857 8.49992ZM27.9286 27.9283H18.2143C17.8922 27.9283 17.5834 27.8004 17.3557 27.5726C17.1279 27.3449 17 27.0361 17 26.714C17 26.392 17.1279 26.0831 17.3557 25.8554C17.5834 25.6277 17.8922 25.4997 18.2143 25.4997H27.9286C28.2506 25.4997 28.5595 25.6277 28.7872 25.8554C29.0149 26.0831 29.1429 26.392 29.1429 26.714C29.1429 27.0361 29.0149 27.3449 28.7872 27.5726C28.5595 27.8004 28.2506 27.9283 27.9286 27.9283ZM27.9286 21.8569H20.6429C20.3208 21.8569 20.0119 21.729 19.7842 21.5013C19.5565 21.2736 19.4286 20.9647 19.4286 20.6427C19.4286 20.3206 19.5565 20.0118 19.7842 19.784C20.0119 19.5563 20.3208 19.4284 20.6429 19.4284H27.9286C28.2506 19.4284 28.5595 19.5563 28.7872 19.784C29.0149 20.0118 29.1429 20.3206 29.1429 20.6427C29.1429 20.9647 29.0149 21.2736 28.7872 21.5013C28.5595 21.729 28.2506 21.8569 27.9286 21.8569ZM27.9286 15.7856H20.6429C20.3208 15.7856 20.0119 15.6576 19.7842 15.4299C19.5565 15.2022 19.4286 14.8933 19.4286 14.5713C19.4286 14.2492 19.5565 13.9404 19.7842 13.7127C20.0119 13.4849 20.3208 13.357 20.6429 13.357H27.9286C28.2506 13.357 28.5595 13.4849 28.7872 13.7127C29.0149 13.9404 29.1429 14.2492 29.1429 14.5713C29.1429 14.8933 29.0149 15.2022 28.7872 15.4299C28.5595 15.6576 28.2506 15.7856 27.9286 15.7856Z" fill="#90B845"/>
<path d="M2.42857 25.4026V32.7854C2.42977 33.0251 2.5019 33.2591 2.63588 33.4579C2.76985 33.6567 2.95968 33.8114 3.18143 33.9025C3.40256 33.9955 3.64629 34.0209 3.88185 33.9755C4.1174 33.9301 4.33424 33.816 4.505 33.6475L7.28571 30.8547L10.0664 33.6475C10.1799 33.7601 10.3145 33.8491 10.4624 33.9095C10.6103 33.97 10.7688 34.0006 10.9286 33.9997C11.0879 34.0038 11.2459 33.9705 11.39 33.9025C11.6118 33.8114 11.8016 33.6567 11.9356 33.4579C12.0695 33.2591 12.1417 33.0251 12.1429 32.7854V25.4026C10.6681 26.2612 8.99217 26.7135 7.28571 26.7135C5.57926 26.7135 3.9033 26.2612 2.42857 25.4026Z" fill="#90B845"/>
<path d="M7.28571 24.2855C11.3095 24.2855 14.5714 21.0236 14.5714 16.9998C14.5714 12.9761 11.3095 9.71419 7.28571 9.71419C3.26193 9.71419 0 12.9761 0 16.9998C0 21.0236 3.26193 24.2855 7.28571 24.2855Z" fill="#90B845"/>
</svg>
