<svg width="30" height="37" viewBox="0 0 30 37" fill="none" xmlns="http://www.w3.org/2000/svg">
<path d="M27.9791 4.18839H26.9074V30.7677C26.9074 32.5335 25.4836 33.9708 23.7344 33.9708H4.24088V34.956C4.24088 36.0843 5.148 37 6.26564 37H27.9753C29.0929 37 30 36.0843 30 34.956V6.23236C30 5.10412 29.0967 4.18839 27.9791 4.18839Z" fill="#90B845"/>
<path d="M23.7306 32.8116C24.8482 32.8116 25.7553 31.8959 25.7553 30.7677V2.04397C25.7553 0.915728 24.8482 0 23.7306 0H9.26641V0.67617C9.27402 0.745719 9.27789 0.819132 9.27789 0.892545V6.49123C9.27789 8.07927 7.9995 9.36979 6.42639 9.36979H0.880328C0.822915 9.36979 0.761675 9.36592 0.704262 9.36206H0V30.7677C0 31.8959 0.90712 32.8116 2.02475 32.8116H23.7306ZM13.2853 25.8645H6.20823C5.68003 25.8645 5.25135 25.4317 5.25135 24.8985C5.25135 24.3653 5.68003 23.9326 6.20823 23.9326H13.2891C13.8173 23.9326 14.246 24.3653 14.246 24.8985C14.246 25.4317 13.8135 25.8645 13.2853 25.8645ZM20.3662 20.9343H6.20823C5.68003 20.9343 5.25135 20.5015 5.25135 19.9683C5.25135 19.4351 5.68003 19.0024 6.20823 19.0024H20.3662C20.8944 19.0024 21.3231 19.4351 21.3231 19.9683C21.3231 20.5015 20.8944 20.9343 20.3662 20.9343ZM6.20823 13.7668H20.3662C20.8944 13.7668 21.3231 14.1996 21.3231 14.7328C21.3231 15.266 20.8944 15.6987 20.3662 15.6987H6.20823C5.68003 15.6987 5.25135 15.266 5.25135 14.7328C5.25135 14.1996 5.68003 13.7668 6.20823 13.7668Z" fill="#90B845"/>
<path d="M0.880328 8.21064H6.42639C6.43022 8.21064 6.43788 8.21064 6.4417 8.21064C7.36796 8.20291 8.11815 7.4456 8.12581 6.51055C8.12581 6.50669 8.12581 6.49896 8.12581 6.4951V0.892545C8.12581 0.374792 7.70478 0.0309106 7.26848 0.0309106C7.05797 0.0309106 6.84746 0.108187 6.67139 0.285923L0.275581 6.74238C-0.260271 7.28332 0.118653 8.21064 0.880328 8.21064Z" fill="#90B845"/>
</svg>
