<svg width="34" height="34" viewBox="0 0 34 34" fill="none" xmlns="http://www.w3.org/2000/svg">
<path d="M10.1978 0C9.26581 0 8.50002 0.766816 8.50002 1.69881V2.26325H21.5345C23.0911 2.26325 24.3667 3.54662 24.3667 5.09984V11.3364H26.6333V1.69881C26.6333 0.766816 25.8631 0 24.9311 0H10.1978ZM6.7967 3.39658C5.8647 3.39658 5.09892 4.16786 5.09892 5.09984V11.3364H7.36448V9.60321C7.36448 9.33387 7.59867 9.06315 7.94885 9.06315C9.4903 9.04066 10.7125 7.83821 10.7612 6.32395C10.7486 5.89861 11.014 5.6665 11.33 5.6665H16.9978C17.3205 5.66689 17.5777 5.93625 17.5634 6.25866C17.5777 7.76848 18.7566 8.98206 20.2506 9.05648C20.6297 9.05648 20.9816 9.24837 20.9634 9.63197V11.3364H23.2322V5.09984C23.2322 4.16786 22.4665 3.39658 21.5345 3.39658H6.7967ZM3.40113 6.79761C1.53067 6.79761 0.00546872 8.31954 2.52941e-05 10.1887C-8.43136e-06 10.1923 -8.43136e-06 10.1958 2.52941e-05 10.1994V30.6001C2.52941e-05 32.4738 1.52732 34 3.40113 34H30.5989C31.5309 34 32.2967 33.2298 32.2967 32.2978V28.3323H24.3667C21.565 28.3323 19.2678 26.0352 19.2678 23.2335C19.2678 20.4319 21.565 18.1348 24.3667 18.1348H32.2967V14.1648C32.2967 13.2328 31.5309 12.466 30.5989 12.466H3.40113C2.13558 12.466 1.13336 11.4649 1.13336 10.1994C1.13336 8.9339 2.13559 7.93165 3.40113 7.93165H3.96558V6.79833L3.40113 6.79761ZM27.7656 6.79761V7.93093H28.3311C28.6548 7.93093 28.8991 8.17624 28.9011 8.5042V11.332H30.0344V8.49982C30.0345 8.49839 30.0345 8.49693 30.0344 8.49551C30.0287 7.56779 29.2631 6.79774 28.3311 6.79774L27.7656 6.79761ZM11.8557 6.80192C11.6046 8.53099 10.2271 9.91015 8.49781 10.1609V11.3374H19.83V10.1597C18.0992 9.91037 16.7201 8.5321 16.4688 6.80192H11.8557ZM24.3667 19.2683C22.1789 19.2683 20.4011 21.0461 20.4011 23.2338C20.4011 25.4215 22.1789 27.1993 24.3667 27.1993H32.2967C33.2287 27.1993 34 26.4324 34 25.5004V20.966C34 20.034 33.2287 19.2682 32.2967 19.2682L24.3667 19.2683ZM24.3667 21.5305C25.2987 21.5305 26.0645 22.3018 26.0645 23.2338C26.0645 24.1658 25.2987 24.9315 24.3667 24.9315C23.4347 24.9315 22.6634 24.1658 22.6634 23.2338C22.6634 22.3018 23.4347 21.5305 24.3667 21.5305Z" fill="#90B845"/>
</svg>
