<svg width="34" height="34" viewBox="0 0 34 34" fill="none" xmlns="http://www.w3.org/2000/svg">
<path d="M31.5714 27.951V31.5804H32.7857C33.4572 31.5804 34 32.1212 34 32.7902C34 33.4592 33.4572 34 32.7857 34H26.7143C26.0428 34 25.5 33.4592 25.5 32.7902C25.5 32.1212 26.0428 31.5804 26.7143 31.5804H27.9286V27.951H6.07143V31.5804H7.28571C7.95721 31.5804 8.5 32.1212 8.5 32.7902C8.5 33.4592 7.95721 34 7.28571 34H1.21429C0.542786 34 0 33.4592 0 32.7902C0 32.1212 0.542786 31.5804 1.21429 31.5804H2.42857V27.951H1.21429C0.544 27.951 0 27.409 0 26.7412V21.9021C0 21.2343 0.544 20.6923 1.21429 20.6923H32.7857C33.456 20.6923 34 21.2343 34 21.9021V26.7412C34 27.409 33.456 27.951 32.7857 27.951H31.5714Z" fill="#90B845"/>
<path d="M4.82314 15.8531H2.30229C2.67507 12.0882 3.78371 8.82543 7.59779 6.98776L5.74843 5.14404C8.62264 2.79825 11.6996 1.09728 15.7857 2.50427V0C19.5585 0.371406 22.8383 1.47595 24.684 5.2759L26.5334 3.43339C28.968 6.38891 30.5672 9.44485 29.1841 13.4335H31.6965C31.5447 14.9688 31.5059 16.3274 30.4859 18.2727H20.1814C21.2002 17.3859 21.8571 16.0975 21.8571 14.6433C21.8571 11.9709 19.6824 9.80416 17 9.80416C14.3176 9.80416 12.1429 11.9709 12.1429 14.6433C12.1429 16.0975 12.7998 17.3859 13.8186 18.2727H4.3605C4.40543 17.4537 4.53657 16.6903 4.82314 15.8531Z" fill="#90B845"/>
</svg>
